<mxfile host="app.diagrams.net" agent="Mozilla/5.0 (Windows NT 10.0; Win64; x64) AppleWebKit/537.36 (KHTML, like Gecko) Chrome/133.0.0.0 Safari/537.36" version="26.0.11">
  <diagram name="Pagina-1" id="BPavdeduB72e0fLUwRKr">
    <mxGraphModel dx="819" dy="426" grid="1" gridSize="10" guides="1" tooltips="1" connect="1" arrows="1" fold="1" page="1" pageScale="1" pageWidth="1169" pageHeight="827" math="0" shadow="0">
      <root>
        <mxCell id="0" />
        <mxCell id="1" parent="0" />
        <mxCell id="Yd3ec5MEqcawKA09kIlU-3" value="EVENTO" style="whiteSpace=wrap;html=1;align=center;" vertex="1" parent="1">
          <mxGeometry x="415" y="345" width="150" height="70" as="geometry" />
        </mxCell>
        <mxCell id="Yd3ec5MEqcawKA09kIlU-4" value="" style="endArrow=none;html=1;rounded=0;" edge="1" parent="1">
          <mxGeometry width="50" height="50" relative="1" as="geometry">
            <mxPoint x="469.65999999999997" y="435" as="sourcePoint" />
            <mxPoint x="469.65999999999997" y="415" as="targetPoint" />
            <Array as="points">
              <mxPoint x="469.65999999999997" y="425" />
            </Array>
          </mxGeometry>
        </mxCell>
        <mxCell id="Yd3ec5MEqcawKA09kIlU-5" value="" style="ellipse;whiteSpace=wrap;html=1;aspect=fixed;" vertex="1" parent="1">
          <mxGeometry x="465" y="435" width="10" height="10" as="geometry" />
        </mxCell>
        <mxCell id="Yd3ec5MEqcawKA09kIlU-6" value="Provincia" style="text;html=1;align=center;verticalAlign=middle;whiteSpace=wrap;rounded=0;" vertex="1" parent="1">
          <mxGeometry x="440" y="445" width="60" height="30" as="geometry" />
        </mxCell>
        <mxCell id="Yd3ec5MEqcawKA09kIlU-7" value="" style="endArrow=none;html=1;rounded=0;" edge="1" parent="1" source="Yd3ec5MEqcawKA09kIlU-8">
          <mxGeometry width="50" height="50" relative="1" as="geometry">
            <mxPoint x="519.66" y="435" as="sourcePoint" />
            <mxPoint x="519.66" y="415" as="targetPoint" />
            <Array as="points">
              <mxPoint x="519.66" y="425" />
            </Array>
          </mxGeometry>
        </mxCell>
        <mxCell id="Yd3ec5MEqcawKA09kIlU-8" value="" style="ellipse;whiteSpace=wrap;html=1;aspect=fixed;" vertex="1" parent="1">
          <mxGeometry x="515" y="435" width="10" height="10" as="geometry" />
        </mxCell>
        <mxCell id="Yd3ec5MEqcawKA09kIlU-9" value="Data" style="text;html=1;align=center;verticalAlign=middle;whiteSpace=wrap;rounded=0;" vertex="1" parent="1">
          <mxGeometry x="490" y="445" width="60" height="30" as="geometry" />
        </mxCell>
        <mxCell id="Yd3ec5MEqcawKA09kIlU-10" value="" style="endArrow=none;html=1;rounded=0;" edge="1" parent="1">
          <mxGeometry width="50" height="50" relative="1" as="geometry">
            <mxPoint x="559.66" y="435" as="sourcePoint" />
            <mxPoint x="559.66" y="415" as="targetPoint" />
            <Array as="points">
              <mxPoint x="559.66" y="425" />
            </Array>
          </mxGeometry>
        </mxCell>
        <mxCell id="Yd3ec5MEqcawKA09kIlU-11" value="" style="ellipse;whiteSpace=wrap;html=1;aspect=fixed;" vertex="1" parent="1">
          <mxGeometry x="555" y="435" width="10" height="10" as="geometry" />
        </mxCell>
        <mxCell id="Yd3ec5MEqcawKA09kIlU-12" value="Titolo" style="text;html=1;align=center;verticalAlign=middle;whiteSpace=wrap;rounded=0;" vertex="1" parent="1">
          <mxGeometry x="530" y="445" width="60" height="30" as="geometry" />
        </mxCell>
        <mxCell id="Yd3ec5MEqcawKA09kIlU-13" value="CATEGORIA" style="rounded=0;whiteSpace=wrap;html=1;" vertex="1" parent="1">
          <mxGeometry x="265" y="130" width="170" height="70" as="geometry" />
        </mxCell>
        <mxCell id="Yd3ec5MEqcawKA09kIlU-14" value="" style="endArrow=none;html=1;rounded=0;" edge="1" parent="1">
          <mxGeometry width="50" height="50" relative="1" as="geometry">
            <mxPoint x="279.65999999999997" y="220" as="sourcePoint" />
            <mxPoint x="279.65999999999997" y="200" as="targetPoint" />
            <Array as="points">
              <mxPoint x="279.65999999999997" y="210" />
            </Array>
          </mxGeometry>
        </mxCell>
        <mxCell id="Yd3ec5MEqcawKA09kIlU-15" value="" style="ellipse;whiteSpace=wrap;html=1;aspect=fixed;gradientColor=none;fillColor=#000000;" vertex="1" parent="1">
          <mxGeometry x="275" y="220" width="10" height="10" as="geometry" />
        </mxCell>
        <mxCell id="Yd3ec5MEqcawKA09kIlU-16" value="CodCategoria" style="text;html=1;align=center;verticalAlign=middle;whiteSpace=wrap;rounded=0;" vertex="1" parent="1">
          <mxGeometry x="240" y="230" width="60" height="30" as="geometry" />
        </mxCell>
        <mxCell id="Yd3ec5MEqcawKA09kIlU-17" value="" style="endArrow=none;html=1;rounded=0;" edge="1" parent="1">
          <mxGeometry width="50" height="50" relative="1" as="geometry">
            <mxPoint x="344.65999999999997" y="220" as="sourcePoint" />
            <mxPoint x="344.65999999999997" y="200" as="targetPoint" />
            <Array as="points">
              <mxPoint x="344.65999999999997" y="210" />
            </Array>
          </mxGeometry>
        </mxCell>
        <mxCell id="Yd3ec5MEqcawKA09kIlU-18" value="" style="ellipse;whiteSpace=wrap;html=1;aspect=fixed;" vertex="1" parent="1">
          <mxGeometry x="340" y="220" width="10" height="10" as="geometry" />
        </mxCell>
        <mxCell id="Yd3ec5MEqcawKA09kIlU-19" value="NomeCategoria" style="text;html=1;align=center;verticalAlign=middle;whiteSpace=wrap;rounded=0;" vertex="1" parent="1">
          <mxGeometry x="330" y="230" width="60" height="30" as="geometry" />
        </mxCell>
        <mxCell id="Yd3ec5MEqcawKA09kIlU-20" value="UTENTE" style="rounded=0;whiteSpace=wrap;html=1;" vertex="1" parent="1">
          <mxGeometry x="590" y="135" width="160" height="70" as="geometry" />
        </mxCell>
        <mxCell id="Yd3ec5MEqcawKA09kIlU-21" value="" style="endArrow=none;html=1;rounded=0;" edge="1" parent="1">
          <mxGeometry width="50" height="50" relative="1" as="geometry">
            <mxPoint x="419.65999999999997" y="435" as="sourcePoint" />
            <mxPoint x="419.65999999999997" y="415" as="targetPoint" />
            <Array as="points">
              <mxPoint x="419.65999999999997" y="425" />
            </Array>
          </mxGeometry>
        </mxCell>
        <mxCell id="Yd3ec5MEqcawKA09kIlU-22" value="" style="ellipse;whiteSpace=wrap;html=1;aspect=fixed;gradientColor=none;fillColor=#000000;" vertex="1" parent="1">
          <mxGeometry x="415" y="435" width="10" height="10" as="geometry" />
        </mxCell>
        <mxCell id="Yd3ec5MEqcawKA09kIlU-24" value="" style="ellipse;whiteSpace=wrap;html=1;aspect=fixed;" vertex="1" parent="1">
          <mxGeometry x="360" y="375" width="10" height="10" as="geometry" />
        </mxCell>
        <mxCell id="Yd3ec5MEqcawKA09kIlU-26" value="" style="endArrow=none;html=1;rounded=0;entryX=0;entryY=0.562;entryDx=0;entryDy=0;entryPerimeter=0;exitX=1;exitY=0.5;exitDx=0;exitDy=0;" edge="1" parent="1" source="Yd3ec5MEqcawKA09kIlU-24">
          <mxGeometry width="50" height="50" relative="1" as="geometry">
            <mxPoint x="380" y="380.33000000000004" as="sourcePoint" />
            <mxPoint x="415" y="379.66999999999996" as="targetPoint" />
          </mxGeometry>
        </mxCell>
        <mxCell id="Yd3ec5MEqcawKA09kIlU-27" value="Descrizione" style="text;html=1;align=center;verticalAlign=middle;whiteSpace=wrap;rounded=0;" vertex="1" parent="1">
          <mxGeometry x="350" y="375" width="60" height="30" as="geometry" />
        </mxCell>
        <mxCell id="Yd3ec5MEqcawKA09kIlU-28" value="IdEvento" style="text;html=1;align=center;verticalAlign=middle;whiteSpace=wrap;rounded=0;" vertex="1" parent="1">
          <mxGeometry x="380" y="445" width="60" height="30" as="geometry" />
        </mxCell>
        <mxCell id="Yd3ec5MEqcawKA09kIlU-29" value="" style="endArrow=none;html=1;rounded=0;" edge="1" parent="1">
          <mxGeometry width="50" height="50" relative="1" as="geometry">
            <mxPoint x="594.66" y="225" as="sourcePoint" />
            <mxPoint x="594.66" y="205" as="targetPoint" />
            <Array as="points">
              <mxPoint x="594.66" y="215" />
            </Array>
          </mxGeometry>
        </mxCell>
        <mxCell id="Yd3ec5MEqcawKA09kIlU-30" value="" style="ellipse;whiteSpace=wrap;html=1;aspect=fixed;" vertex="1" parent="1">
          <mxGeometry x="590" y="225" width="10" height="10" as="geometry" />
        </mxCell>
        <mxCell id="Yd3ec5MEqcawKA09kIlU-31" value="Username" style="text;html=1;align=center;verticalAlign=middle;whiteSpace=wrap;rounded=0;" vertex="1" parent="1">
          <mxGeometry x="565" y="225" width="60" height="30" as="geometry" />
        </mxCell>
        <mxCell id="Yd3ec5MEqcawKA09kIlU-32" value="" style="endArrow=none;html=1;rounded=0;" edge="1" parent="1">
          <mxGeometry width="50" height="50" relative="1" as="geometry">
            <mxPoint x="654.66" y="225" as="sourcePoint" />
            <mxPoint x="654.66" y="205" as="targetPoint" />
            <Array as="points">
              <mxPoint x="654.66" y="215" />
            </Array>
          </mxGeometry>
        </mxCell>
        <mxCell id="Yd3ec5MEqcawKA09kIlU-33" value="" style="ellipse;whiteSpace=wrap;html=1;aspect=fixed;" vertex="1" parent="1">
          <mxGeometry x="650" y="225" width="10" height="10" as="geometry" />
        </mxCell>
        <mxCell id="Yd3ec5MEqcawKA09kIlU-34" value="" style="endArrow=none;html=1;rounded=0;" edge="1" parent="1">
          <mxGeometry width="50" height="50" relative="1" as="geometry">
            <mxPoint x="704.66" y="225" as="sourcePoint" />
            <mxPoint x="704.66" y="205" as="targetPoint" />
            <Array as="points">
              <mxPoint x="704.66" y="215" />
            </Array>
          </mxGeometry>
        </mxCell>
        <mxCell id="Yd3ec5MEqcawKA09kIlU-35" value="" style="ellipse;whiteSpace=wrap;html=1;aspect=fixed;" vertex="1" parent="1">
          <mxGeometry x="700" y="225" width="10" height="10" as="geometry" />
        </mxCell>
        <mxCell id="Yd3ec5MEqcawKA09kIlU-36" value="Nome" style="text;html=1;align=center;verticalAlign=middle;whiteSpace=wrap;rounded=0;" vertex="1" parent="1">
          <mxGeometry x="625" y="225" width="60" height="30" as="geometry" />
        </mxCell>
        <mxCell id="Yd3ec5MEqcawKA09kIlU-37" value="Cognome" style="text;html=1;align=center;verticalAlign=middle;whiteSpace=wrap;rounded=0;" vertex="1" parent="1">
          <mxGeometry x="675" y="225" width="60" height="30" as="geometry" />
        </mxCell>
        <mxCell id="Yd3ec5MEqcawKA09kIlU-40" value="" style="ellipse;whiteSpace=wrap;html=1;aspect=fixed;" vertex="1" parent="1">
          <mxGeometry x="680" y="105" width="10" height="10" as="geometry" />
        </mxCell>
        <mxCell id="Yd3ec5MEqcawKA09kIlU-41" value="Password" style="text;html=1;align=center;verticalAlign=middle;whiteSpace=wrap;rounded=0;" vertex="1" parent="1">
          <mxGeometry x="655" y="75" width="60" height="30" as="geometry" />
        </mxCell>
        <mxCell id="Yd3ec5MEqcawKA09kIlU-42" value="" style="ellipse;whiteSpace=wrap;html=1;aspect=fixed;fillColor=#000000;" vertex="1" parent="1">
          <mxGeometry x="630" y="105" width="10" height="10" as="geometry" />
        </mxCell>
        <mxCell id="Yd3ec5MEqcawKA09kIlU-43" value="Email" style="text;html=1;align=center;verticalAlign=middle;whiteSpace=wrap;rounded=0;" vertex="1" parent="1">
          <mxGeometry x="605" y="75" width="60" height="30" as="geometry" />
        </mxCell>
        <mxCell id="Yd3ec5MEqcawKA09kIlU-44" value="" style="endArrow=none;html=1;rounded=0;entryX=0.5;entryY=1;entryDx=0;entryDy=0;exitX=0.592;exitY=-0.01;exitDx=0;exitDy=0;exitPerimeter=0;" edge="1" parent="1" source="Yd3ec5MEqcawKA09kIlU-20" target="Yd3ec5MEqcawKA09kIlU-40">
          <mxGeometry width="50" height="50" relative="1" as="geometry">
            <mxPoint x="710" y="175" as="sourcePoint" />
            <mxPoint x="760" y="125" as="targetPoint" />
          </mxGeometry>
        </mxCell>
        <mxCell id="Yd3ec5MEqcawKA09kIlU-45" value="" style="endArrow=none;html=1;rounded=0;entryX=0.5;entryY=1;entryDx=0;entryDy=0;exitX=0.281;exitY=-0.01;exitDx=0;exitDy=0;exitPerimeter=0;" edge="1" parent="1" source="Yd3ec5MEqcawKA09kIlU-20" target="Yd3ec5MEqcawKA09kIlU-42">
          <mxGeometry width="50" height="50" relative="1" as="geometry">
            <mxPoint x="710" y="175" as="sourcePoint" />
            <mxPoint x="760" y="125" as="targetPoint" />
          </mxGeometry>
        </mxCell>
        <mxCell id="Yd3ec5MEqcawKA09kIlU-46" value="POST" style="rounded=0;whiteSpace=wrap;html=1;" vertex="1" parent="1">
          <mxGeometry x="700" y="350" width="120" height="60" as="geometry" />
        </mxCell>
        <mxCell id="Yd3ec5MEqcawKA09kIlU-47" value="Voto" style="text;html=1;align=center;verticalAlign=middle;whiteSpace=wrap;rounded=0;" vertex="1" parent="1">
          <mxGeometry x="690" y="430" width="60" height="30" as="geometry" />
        </mxCell>
        <mxCell id="Yd3ec5MEqcawKA09kIlU-49" value="Commento" style="text;html=1;align=center;verticalAlign=middle;whiteSpace=wrap;rounded=0;" vertex="1" parent="1">
          <mxGeometry x="745" y="430" width="60" height="30" as="geometry" />
        </mxCell>
        <mxCell id="Yd3ec5MEqcawKA09kIlU-52" value="" style="endArrow=none;html=1;rounded=0;" edge="1" parent="1" source="Yd3ec5MEqcawKA09kIlU-53">
          <mxGeometry width="50" height="50" relative="1" as="geometry">
            <mxPoint x="719.66" y="430" as="sourcePoint" />
            <mxPoint x="719.66" y="410" as="targetPoint" />
            <Array as="points">
              <mxPoint x="719.66" y="420" />
            </Array>
          </mxGeometry>
        </mxCell>
        <mxCell id="Yd3ec5MEqcawKA09kIlU-53" value="" style="ellipse;whiteSpace=wrap;html=1;aspect=fixed;" vertex="1" parent="1">
          <mxGeometry x="715" y="430" width="10" height="10" as="geometry" />
        </mxCell>
        <mxCell id="Yd3ec5MEqcawKA09kIlU-54" value="" style="endArrow=none;html=1;rounded=0;" edge="1" parent="1">
          <mxGeometry width="50" height="50" relative="1" as="geometry">
            <mxPoint x="759.66" y="430" as="sourcePoint" />
            <mxPoint x="759.66" y="410" as="targetPoint" />
            <Array as="points">
              <mxPoint x="759.66" y="420" />
            </Array>
          </mxGeometry>
        </mxCell>
        <mxCell id="Yd3ec5MEqcawKA09kIlU-55" value="" style="ellipse;whiteSpace=wrap;html=1;aspect=fixed;" vertex="1" parent="1">
          <mxGeometry x="755" y="430" width="10" height="10" as="geometry" />
        </mxCell>
        <mxCell id="Yd3ec5MEqcawKA09kIlU-56" value="ARTISTA" style="rounded=0;whiteSpace=wrap;html=1;" vertex="1" parent="1">
          <mxGeometry x="125" y="340" width="120" height="60" as="geometry" />
        </mxCell>
        <mxCell id="Yd3ec5MEqcawKA09kIlU-57" value="Nome" style="text;html=1;align=center;verticalAlign=middle;whiteSpace=wrap;rounded=0;" vertex="1" parent="1">
          <mxGeometry x="75" y="345" width="60" height="30" as="geometry" />
        </mxCell>
        <mxCell id="Yd3ec5MEqcawKA09kIlU-58" value="Cognome" style="text;html=1;align=center;verticalAlign=middle;resizable=0;points=[];autosize=1;strokeColor=none;fillColor=none;" vertex="1" parent="1">
          <mxGeometry x="55" y="370" width="80" height="30" as="geometry" />
        </mxCell>
        <mxCell id="Yd3ec5MEqcawKA09kIlU-59" value="NomeArt" style="text;html=1;align=center;verticalAlign=middle;whiteSpace=wrap;rounded=0;" vertex="1" parent="1">
          <mxGeometry x="65" y="320" width="60" height="30" as="geometry" />
        </mxCell>
        <mxCell id="Yd3ec5MEqcawKA09kIlU-60" value="" style="ellipse;whiteSpace=wrap;html=1;aspect=fixed;fillColor=#000000;" vertex="1" parent="1">
          <mxGeometry x="70" y="340" width="10" height="10" as="geometry" />
        </mxCell>
        <mxCell id="Yd3ec5MEqcawKA09kIlU-61" value="" style="endArrow=none;html=1;rounded=0;entryX=0;entryY=0.562;entryDx=0;entryDy=0;entryPerimeter=0;exitX=1;exitY=0.5;exitDx=0;exitDy=0;" edge="1" parent="1" source="Yd3ec5MEqcawKA09kIlU-60">
          <mxGeometry width="50" height="50" relative="1" as="geometry">
            <mxPoint x="90" y="345.33000000000004" as="sourcePoint" />
            <mxPoint x="125" y="344.66999999999996" as="targetPoint" />
          </mxGeometry>
        </mxCell>
        <mxCell id="Yd3ec5MEqcawKA09kIlU-62" value="" style="ellipse;whiteSpace=wrap;html=1;aspect=fixed;" vertex="1" parent="1">
          <mxGeometry x="70" y="365" width="10" height="10" as="geometry" />
        </mxCell>
        <mxCell id="Yd3ec5MEqcawKA09kIlU-63" value="" style="endArrow=none;html=1;rounded=0;entryX=0;entryY=0.562;entryDx=0;entryDy=0;entryPerimeter=0;exitX=1;exitY=0.5;exitDx=0;exitDy=0;" edge="1" parent="1" source="Yd3ec5MEqcawKA09kIlU-62">
          <mxGeometry width="50" height="50" relative="1" as="geometry">
            <mxPoint x="90" y="370.33000000000004" as="sourcePoint" />
            <mxPoint x="125" y="369.66999999999996" as="targetPoint" />
          </mxGeometry>
        </mxCell>
        <mxCell id="Yd3ec5MEqcawKA09kIlU-64" value="" style="ellipse;whiteSpace=wrap;html=1;aspect=fixed;" vertex="1" parent="1">
          <mxGeometry x="70" y="390" width="10" height="10" as="geometry" />
        </mxCell>
        <mxCell id="Yd3ec5MEqcawKA09kIlU-65" value="" style="endArrow=none;html=1;rounded=0;entryX=0;entryY=0.562;entryDx=0;entryDy=0;entryPerimeter=0;exitX=1;exitY=0.5;exitDx=0;exitDy=0;" edge="1" parent="1" source="Yd3ec5MEqcawKA09kIlU-64">
          <mxGeometry width="50" height="50" relative="1" as="geometry">
            <mxPoint x="90" y="395.33000000000004" as="sourcePoint" />
            <mxPoint x="125" y="394.66999999999996" as="targetPoint" />
          </mxGeometry>
        </mxCell>
        <mxCell id="Yd3ec5MEqcawKA09kIlU-66" value="" style="rhombus;whiteSpace=wrap;html=1;" vertex="1" parent="1">
          <mxGeometry x="310" y="340" width="40" height="40" as="geometry" />
        </mxCell>
        <mxCell id="Yd3ec5MEqcawKA09kIlU-68" value="" style="endArrow=none;html=1;rounded=0;entryX=0;entryY=0.25;entryDx=0;entryDy=0;exitX=1;exitY=0.5;exitDx=0;exitDy=0;" edge="1" parent="1" source="Yd3ec5MEqcawKA09kIlU-66" target="Yd3ec5MEqcawKA09kIlU-3">
          <mxGeometry width="50" height="50" relative="1" as="geometry">
            <mxPoint x="350" y="360" as="sourcePoint" />
            <mxPoint x="400" y="310" as="targetPoint" />
          </mxGeometry>
        </mxCell>
        <mxCell id="Yd3ec5MEqcawKA09kIlU-69" value="" style="endArrow=none;html=1;rounded=0;exitX=0;exitY=0.5;exitDx=0;exitDy=0;entryX=1.005;entryY=0.357;entryDx=0;entryDy=0;entryPerimeter=0;" edge="1" parent="1" source="Yd3ec5MEqcawKA09kIlU-66" target="Yd3ec5MEqcawKA09kIlU-56">
          <mxGeometry width="50" height="50" relative="1" as="geometry">
            <mxPoint x="440" y="310" as="sourcePoint" />
            <mxPoint x="490" y="260" as="targetPoint" />
          </mxGeometry>
        </mxCell>
        <mxCell id="Yd3ec5MEqcawKA09kIlU-70" value="1,N" style="text;html=1;align=center;verticalAlign=middle;whiteSpace=wrap;rounded=0;" vertex="1" parent="1">
          <mxGeometry x="230" y="335" width="60" height="30" as="geometry" />
        </mxCell>
        <mxCell id="Yd3ec5MEqcawKA09kIlU-71" value="1,N" style="text;html=1;align=center;verticalAlign=middle;whiteSpace=wrap;rounded=0;" vertex="1" parent="1">
          <mxGeometry x="360" y="335" width="60" height="30" as="geometry" />
        </mxCell>
        <mxCell id="Yd3ec5MEqcawKA09kIlU-72" value="" style="rhombus;whiteSpace=wrap;html=1;" vertex="1" parent="1">
          <mxGeometry x="410" y="260" width="40" height="40" as="geometry" />
        </mxCell>
        <mxCell id="Yd3ec5MEqcawKA09kIlU-73" value="" style="endArrow=none;html=1;rounded=0;exitX=0.5;exitY=1;exitDx=0;exitDy=0;entryX=0.105;entryY=0.014;entryDx=0;entryDy=0;entryPerimeter=0;" edge="1" parent="1" source="Yd3ec5MEqcawKA09kIlU-72" target="Yd3ec5MEqcawKA09kIlU-3">
          <mxGeometry width="50" height="50" relative="1" as="geometry">
            <mxPoint x="440" y="310" as="sourcePoint" />
            <mxPoint x="490" y="260" as="targetPoint" />
          </mxGeometry>
        </mxCell>
        <mxCell id="Yd3ec5MEqcawKA09kIlU-74" value="" style="endArrow=none;html=1;rounded=0;entryX=0.968;entryY=0.98;entryDx=0;entryDy=0;entryPerimeter=0;exitX=0.5;exitY=0;exitDx=0;exitDy=0;" edge="1" parent="1" source="Yd3ec5MEqcawKA09kIlU-72" target="Yd3ec5MEqcawKA09kIlU-13">
          <mxGeometry width="50" height="50" relative="1" as="geometry">
            <mxPoint x="440" y="310" as="sourcePoint" />
            <mxPoint x="490" y="260" as="targetPoint" />
          </mxGeometry>
        </mxCell>
        <mxCell id="Yd3ec5MEqcawKA09kIlU-75" value="0,N" style="text;html=1;align=center;verticalAlign=middle;whiteSpace=wrap;rounded=0;" vertex="1" parent="1">
          <mxGeometry x="420" y="195" width="60" height="30" as="geometry" />
        </mxCell>
        <mxCell id="Yd3ec5MEqcawKA09kIlU-76" value="1,1" style="text;html=1;align=center;verticalAlign=middle;whiteSpace=wrap;rounded=0;" vertex="1" parent="1">
          <mxGeometry x="420" y="320" width="60" height="30" as="geometry" />
        </mxCell>
        <mxCell id="Yd3ec5MEqcawKA09kIlU-77" value="" style="rhombus;whiteSpace=wrap;html=1;" vertex="1" parent="1">
          <mxGeometry x="500" y="150" width="40" height="40" as="geometry" />
        </mxCell>
        <mxCell id="Yd3ec5MEqcawKA09kIlU-78" value="" style="endArrow=none;html=1;rounded=0;entryX=0;entryY=0.5;entryDx=0;entryDy=0;exitX=0.992;exitY=0.58;exitDx=0;exitDy=0;exitPerimeter=0;" edge="1" parent="1" source="Yd3ec5MEqcawKA09kIlU-13" target="Yd3ec5MEqcawKA09kIlU-77">
          <mxGeometry width="50" height="50" relative="1" as="geometry">
            <mxPoint x="440" y="170" as="sourcePoint" />
            <mxPoint x="490" y="140" as="targetPoint" />
          </mxGeometry>
        </mxCell>
        <mxCell id="Yd3ec5MEqcawKA09kIlU-79" value="" style="endArrow=none;html=1;rounded=0;entryX=0;entryY=0.5;entryDx=0;entryDy=0;exitX=1;exitY=0.5;exitDx=0;exitDy=0;" edge="1" parent="1" source="Yd3ec5MEqcawKA09kIlU-77" target="Yd3ec5MEqcawKA09kIlU-20">
          <mxGeometry width="50" height="50" relative="1" as="geometry">
            <mxPoint x="440" y="190" as="sourcePoint" />
            <mxPoint x="490" y="140" as="targetPoint" />
          </mxGeometry>
        </mxCell>
        <mxCell id="Yd3ec5MEqcawKA09kIlU-81" value="1,N" style="text;html=1;align=center;verticalAlign=middle;whiteSpace=wrap;rounded=0;" vertex="1" parent="1">
          <mxGeometry x="545" y="140" width="60" height="30" as="geometry" />
        </mxCell>
        <mxCell id="Yd3ec5MEqcawKA09kIlU-82" value="0,N" style="text;html=1;align=center;verticalAlign=middle;whiteSpace=wrap;rounded=0;" vertex="1" parent="1">
          <mxGeometry x="425" y="140" width="60" height="30" as="geometry" />
        </mxCell>
        <mxCell id="Yd3ec5MEqcawKA09kIlU-83" value="" style="endArrow=none;html=1;rounded=0;entryX=1;entryY=1;entryDx=0;entryDy=0;exitX=0.5;exitY=0;exitDx=0;exitDy=0;" edge="1" parent="1" source="Yd3ec5MEqcawKA09kIlU-84" target="Yd3ec5MEqcawKA09kIlU-20">
          <mxGeometry width="50" height="50" relative="1" as="geometry">
            <mxPoint x="770" y="257.5" as="sourcePoint" />
            <mxPoint x="770" y="202.5" as="targetPoint" />
          </mxGeometry>
        </mxCell>
        <mxCell id="Yd3ec5MEqcawKA09kIlU-84" value="" style="rhombus;whiteSpace=wrap;html=1;" vertex="1" parent="1">
          <mxGeometry x="730" y="260" width="40" height="40" as="geometry" />
        </mxCell>
        <mxCell id="Yd3ec5MEqcawKA09kIlU-85" value="" style="endArrow=none;html=1;rounded=0;entryX=0.5;entryY=1;entryDx=0;entryDy=0;exitX=0.427;exitY=0.029;exitDx=0;exitDy=0;exitPerimeter=0;" edge="1" parent="1" source="Yd3ec5MEqcawKA09kIlU-46" target="Yd3ec5MEqcawKA09kIlU-84">
          <mxGeometry width="50" height="50" relative="1" as="geometry">
            <mxPoint x="460" y="310" as="sourcePoint" />
            <mxPoint x="510" y="260" as="targetPoint" />
          </mxGeometry>
        </mxCell>
        <mxCell id="Yd3ec5MEqcawKA09kIlU-86" value="0,N" style="text;html=1;align=center;verticalAlign=middle;whiteSpace=wrap;rounded=0;" vertex="1" parent="1">
          <mxGeometry x="740" y="200" width="60" height="30" as="geometry" />
        </mxCell>
        <mxCell id="Yd3ec5MEqcawKA09kIlU-87" value="1,1" style="text;html=1;align=center;verticalAlign=middle;whiteSpace=wrap;rounded=0;" vertex="1" parent="1">
          <mxGeometry x="740" y="320" width="60" height="30" as="geometry" />
        </mxCell>
        <mxCell id="Yd3ec5MEqcawKA09kIlU-88" value="" style="rhombus;whiteSpace=wrap;html=1;" vertex="1" parent="1">
          <mxGeometry x="610" y="360" width="40" height="40" as="geometry" />
        </mxCell>
        <mxCell id="Yd3ec5MEqcawKA09kIlU-89" value="" style="endArrow=none;html=1;rounded=0;entryX=0;entryY=0.5;entryDx=0;entryDy=0;exitX=1;exitY=0.5;exitDx=0;exitDy=0;" edge="1" parent="1" source="Yd3ec5MEqcawKA09kIlU-3" target="Yd3ec5MEqcawKA09kIlU-88">
          <mxGeometry width="50" height="50" relative="1" as="geometry">
            <mxPoint x="565" y="375" as="sourcePoint" />
            <mxPoint x="615" y="325" as="targetPoint" />
          </mxGeometry>
        </mxCell>
        <mxCell id="Yd3ec5MEqcawKA09kIlU-90" value="" style="endArrow=none;html=1;rounded=0;entryX=0;entryY=0.5;entryDx=0;entryDy=0;exitX=1;exitY=0.5;exitDx=0;exitDy=0;" edge="1" parent="1" source="Yd3ec5MEqcawKA09kIlU-88" target="Yd3ec5MEqcawKA09kIlU-46">
          <mxGeometry width="50" height="50" relative="1" as="geometry">
            <mxPoint x="460" y="310" as="sourcePoint" />
            <mxPoint x="510" y="260" as="targetPoint" />
          </mxGeometry>
        </mxCell>
        <mxCell id="Yd3ec5MEqcawKA09kIlU-91" value="0,N" style="text;html=1;align=center;verticalAlign=middle;whiteSpace=wrap;rounded=0;" vertex="1" parent="1">
          <mxGeometry x="550" y="355" width="60" height="30" as="geometry" />
        </mxCell>
        <mxCell id="Yd3ec5MEqcawKA09kIlU-92" value="1,1" style="text;html=1;align=center;verticalAlign=middle;whiteSpace=wrap;rounded=0;" vertex="1" parent="1">
          <mxGeometry x="655" y="355" width="60" height="30" as="geometry" />
        </mxCell>
        <mxCell id="Yd3ec5MEqcawKA09kIlU-94" value="" style="endArrow=none;html=1;rounded=0;curved=1;" edge="1" parent="1">
          <mxGeometry width="50" height="50" relative="1" as="geometry">
            <mxPoint x="770" y="315" as="sourcePoint" />
            <mxPoint x="675" y="425" as="targetPoint" />
            <Array as="points">
              <mxPoint x="690" y="300" />
              <mxPoint x="675" y="360" />
            </Array>
          </mxGeometry>
        </mxCell>
        <mxCell id="Yd3ec5MEqcawKA09kIlU-96" value="" style="ellipse;whiteSpace=wrap;html=1;aspect=fixed;gradientColor=none;fillColor=#000000;" vertex="1" parent="1">
          <mxGeometry x="770" y="310" width="10" height="10" as="geometry" />
        </mxCell>
      </root>
    </mxGraphModel>
  </diagram>
</mxfile>
